<?xml version="1.0" encoding="UTF-8"?>
<svg xmlns="http://www.w3.org/2000/svg" xmlns:xlink="http://www.w3.org/1999/xlink" width="375pt" height="374.999991pt" viewBox="0 0 375 374.999991" version="1.2">
<g id="surface1">
<path style=" stroke:none;fill-rule:nonzero;fill:rgb(98.039246%,73.329163%,9.408569%);fill-opacity:1;" d="M 124.402344 311.390625 C 98.964844 336.878906 19.113281 367.152344 50.117188 344.375 C 81.125 321.597656 57.601562 295.425781 83.042969 269.9375 C 108.476562 244.449219 130.804688 240.632812 142.230469 252.078125 C 153.652344 263.523438 149.839844 285.902344 124.402344 311.390625 "/>
<path style=" stroke:none;fill-rule:nonzero;fill:rgb(93.328857%,51.759338%,11.759949%);fill-opacity:1;" d="M 134.253906 286.425781 C 116.335938 304.375 112.296875 296.511719 93.273438 320.675781 C 83.351562 333.289062 54.957031 347.445312 62.375 339.195312 C 97.496094 300.164062 72.265625 299.984375 100.539062 264.65625 C 116.34375 244.914062 134.183594 244.019531 142.230469 252.078125 C 150.277344 260.140625 152.164062 268.472656 134.253906 286.425781 "/>
<path style=" stroke:none;fill-rule:nonzero;fill:rgb(98.039246%,73.329163%,9.408569%);fill-opacity:1;" d="M 67.148438 247.703125 C 39.007812 270.148438 -0.03125 346.242188 26.054688 317.945312 C 52.140625 289.640625 75.433594 316.019531 103.582031 293.570312 C 131.726562 271.121094 138.03125 249.316406 127.972656 236.652344 C 117.914062 223.984375 95.292969 225.25 67.148438 247.703125 "/>
<path style=" stroke:none;fill-rule:nonzero;fill:rgb(95.689392%,42.349243%,14.509583%);fill-opacity:1;" d="M 93.015625 240.71875 C 73.191406 256.53125 80.53125 261.441406 54.425781 277.648438 C 40.800781 286.109375 23.5625 312.777344 32.578125 306.320312 C 75.242188 275.765625 72.574219 300.90625 110.789062 276.742188 C 132.152344 263.234375 135.058594 245.570312 127.96875 236.648438 C 120.886719 227.730469 112.839844 224.90625 93.015625 240.71875 "/>
<path style=" stroke:none;fill-rule:nonzero;fill:rgb(96.859741%,86.268616%,9.799194%);fill-opacity:1;" d="M 77.347656 264.433594 C 57.648438 283.226562 37.527344 347.570312 54.582031 323.769531 C 71.640625 299.96875 95.140625 322.675781 114.835938 303.882812 C 134.535156 285.082031 136.265625 266.589844 125.914062 255.699219 C 115.558594 244.804688 97.046875 245.632812 77.347656 264.433594 "/>
<path style=" stroke:none;fill-rule:nonzero;fill:rgb(93.328857%,51.759338%,11.759949%);fill-opacity:1;" d="M 97.636719 258.773438 C 83.761719 272.015625 90.621094 276.277344 71.617188 289.785156 C 61.691406 296.835938 51.691406 319.34375 58.121094 313.949219 C 88.535156 288.410156 90.351562 309.78125 118.113281 289.632812 C 133.625 278.371094 133.203125 263.367188 125.910156 255.699219 C 118.621094 248.027344 111.511719 245.53125 97.636719 258.773438 "/>
<path style=" stroke:none;fill-rule:nonzero;fill:rgb(94.509888%,31.759644%,10.5896%);fill-opacity:1;" d="M 48.847656 248.980469 C 48.847656 248.980469 43.597656 256.03125 38.507812 248.535156 C 33.414062 241.035156 55.703125 198.996094 69.597656 185.738281 C 101.863281 154.949219 137.207031 154.492188 173.035156 177.734375 L 129.480469 219.300781 C 109.925781 221.636719 80.734375 212.4375 48.847656 248.980469 "/>
<path style=" stroke:none;fill-rule:nonzero;fill:rgb(95.289612%,40.388489%,19.219971%);fill-opacity:1;" d="M 66.644531 188.84375 C 67.660156 187.691406 68.652344 186.644531 69.597656 185.738281 C 101.863281 154.949219 137.207031 154.492188 173.035156 177.734375 L 165.035156 185.367188 C 131.066406 163.332031 97.53125 162.617188 66.644531 188.84375 "/>
<path style=" stroke:none;fill-rule:nonzero;fill:rgb(79.219055%,26.269531%,8.628845%);fill-opacity:1;" d="M 45.179688 245.429688 C 78.0625 207.835938 107.890625 216.609375 128.089844 214.292969 L 135.210938 213.828125 L 129.480469 219.300781 C 109.925781 221.636719 80.734375 212.4375 48.847656 248.980469 C 48.847656 248.980469 43.597656 256.03125 38.507812 248.535156 L 38.417969 248.359375 C 42.132812 249.496094 45.179688 245.429688 45.179688 245.429688 "/>
<path style=" stroke:none;fill-rule:nonzero;fill:rgb(94.509888%,31.759644%,10.5896%);fill-opacity:1;" d="M 121.609375 325.542969 C 121.609375 325.542969 114.324219 330.457031 121.546875 335.917969 C 128.773438 341.382812 171.761719 321.121094 185.65625 307.859375 C 217.921875 277.070312 220.101562 241.71875 198.683594 204.722656 L 155.125 246.289062 C 151.847656 265.742188 159.589844 295.414062 121.609375 325.542969 "/>
<path style=" stroke:none;fill-rule:nonzero;fill:rgb(95.289612%,40.388489%,19.219971%);fill-opacity:1;" d="M 182.414062 310.664062 C 183.613281 309.703125 184.707031 308.765625 185.65625 307.859375 C 217.921875 277.070312 220.101562 241.71875 198.683594 204.722656 L 190.683594 212.355469 C 210.988281 247.429688 210.0625 281.027344 182.414062 310.664062 "/>
<path style=" stroke:none;fill-rule:nonzero;fill:rgb(79.219055%,26.269531%,8.628845%);fill-opacity:1;" d="M 124.96875 329.390625 C 164.046875 298.3125 156.753906 268.027344 160.042969 247.925781 L 160.859375 240.820312 L 155.125 246.289062 C 151.847656 265.742188 159.589844 295.414062 121.609375 325.542969 C 121.609375 325.542969 114.324219 330.457031 121.546875 335.917969 L 121.71875 336.011719 C 120.769531 332.242188 124.96875 329.390625 124.96875 329.390625 "/>
<path style=" stroke:none;fill-rule:nonzero;fill:rgb(100%,100%,100%);fill-opacity:1;" d="M 105.082031 224.144531 C 115.417969 194.464844 153.046875 145.59375 190.878906 109.484375 C 252.589844 50.597656 332.578125 8.707031 353.757812 30.992188 C 374.941406 53.277344 329.285156 131.300781 267.574219 190.1875 C 229.742188 226.296875 179.195312 261.570312 149.105469 270.46875 L 105.082031 224.144531 "/>
<path style=" stroke:none;fill-rule:nonzero;fill:rgb(65.489197%,64.709473%,65.098572%);fill-opacity:1;" d="M 105.082031 224.144531 L 105.523438 224.296875 C 110.65625 209.542969 122.625 189.921875 138.039062 169.503906 C 153.453125 149.085938 172.300781 127.855469 191.199219 109.824219 C 216.277344 85.890625 244.382812 64.769531 270.308594 49.636719 C 296.230469 34.496094 320.003906 25.371094 336.285156 25.378906 C 343.746094 25.382812 349.59375 27.28125 353.421875 31.3125 C 356.902344 34.976562 358.550781 40.210938 358.550781 46.746094 C 358.5625 62.769531 348.5625 86.375 332.125 112.027344 C 315.695312 137.683594 292.855469 165.421875 267.253906 189.851562 C 248.359375 207.886719 226.28125 225.71875 205.171875 240.148438 C 184.074219 254.578125 163.933594 265.601562 148.972656 270.023438 L 149.105469 270.46875 L 149.441406 270.144531 L 105.417969 223.824219 L 105.082031 224.144531 L 105.523438 224.296875 L 105.082031 224.144531 L 104.746094 224.464844 L 148.964844 270.996094 L 149.238281 270.914062 C 164.367188 266.4375 184.546875 255.375 205.699219 240.914062 C 226.847656 226.457031 248.957031 208.597656 267.894531 190.523438 C 293.550781 166.042969 316.429688 138.257812 332.90625 112.527344 C 349.378906 86.789062 359.46875 63.132812 359.480469 46.746094 C 359.480469 40.0625 357.785156 34.558594 354.097656 30.671875 C 350.023438 26.394531 343.890625 24.449219 336.285156 24.449219 C 319.675781 24.460938 295.851562 33.660156 269.84375 48.828125 C 243.839844 64.007812 215.6875 85.167969 190.558594 109.152344 C 171.621094 127.222656 152.746094 148.484375 137.300781 168.945312 C 121.855469 189.410156 109.847656 209.066406 104.644531 223.992188 L 104.550781 224.261719 L 104.746094 224.464844 L 105.082031 224.144531 "/>
<path style=" stroke:none;fill-rule:nonzero;fill:rgb(25.878906%,74.508667%,59.609985%);fill-opacity:1;" d="M 165.105469 264.210938 C 159.335938 266.910156 153.953125 269.035156 149.105469 270.46875 L 105.082031 224.144531 C 106.75 219.363281 109.128906 214.078125 112.097656 208.4375 L 165.105469 264.210938 "/>
<path style=" stroke:none;fill-rule:nonzero;fill:rgb(93.328857%,64.309692%,15.289307%);fill-opacity:1;" d="M 281.773438 42.734375 C 314.660156 25.425781 342.511719 19.15625 353.757812 30.992188 C 365.011719 42.828125 357.398438 70.398438 338.546875 102.46875 C 338.546875 102.46875 332.53125 84.375 316.027344 67.003906 C 299.519531 49.632812 281.773438 42.734375 281.773438 42.734375 "/>
<path style=" stroke:none;fill-rule:nonzero;fill:rgb(94.509888%,31.759644%,10.5896%);fill-opacity:1;" d="M 319.730469 27.289062 C 335.144531 23.367188 347.242188 24.132812 353.757812 30.992188 C 360.277344 37.851562 360.457031 49.996094 355.789062 65.234375 C 355.789062 65.234375 350.902344 54.871094 340.359375 43.78125 C 329.820312 32.6875 319.730469 27.289062 319.730469 27.289062 "/>
<path style=" stroke:none;fill-rule:nonzero;fill:rgb(94.509888%,31.759644%,10.5896%);fill-opacity:1;" d="M 64.222656 302.976562 C 64.222656 302.976562 59.410156 307.4375 63.351562 311.585938 C 67.285156 315.722656 71.96875 311.125 71.96875 311.125 L 196.953125 209.179688 C 207.097656 199.5 198.796875 191.398438 194.269531 186.640625 C 189.746094 181.882812 182.078125 173.175781 171.941406 182.851562 L 64.222656 302.976562 "/>
<path style=" stroke:none;fill-rule:nonzero;fill:rgb(95.289612%,40.388489%,19.219971%);fill-opacity:1;" d="M 189.539062 191.15625 C 186.332031 187.785156 181.84375 182.863281 176.683594 181 C 183.589844 178.847656 188.933594 184.808594 192.386719 188.441406 C 195.839844 192.070312 201.511719 197.707031 199.03125 204.515625 C 197.429688 199.261719 192.742188 194.523438 189.539062 191.15625 "/>
<path style=" stroke:none;fill-rule:nonzero;fill:rgb(79.219055%,26.269531%,8.628845%);fill-opacity:1;" d="M 242.203125 80.039062 C 226.632812 94.894531 226.03125 119.589844 240.855469 135.1875 C 255.6875 150.789062 280.320312 151.390625 295.890625 136.53125 C 311.457031 121.675781 312.058594 96.988281 297.234375 81.386719 C 282.40625 65.785156 257.769531 65.183594 242.203125 80.039062 "/>
<path style=" stroke:none;fill-rule:nonzero;fill:rgb(94.509888%,31.759644%,10.5896%);fill-opacity:1;" d="M 245.703125 80.867188 C 230.136719 95.726562 229.535156 120.417969 244.359375 136.015625 C 259.183594 151.617188 283.824219 152.222656 299.394531 137.367188 C 314.960938 122.507812 315.5625 97.820312 300.738281 82.214844 C 285.910156 66.617188 261.269531 66.015625 245.703125 80.867188 "/>
<path style=" stroke:none;fill-rule:nonzero;fill:rgb(100%,100%,100%);fill-opacity:1;" d="M 254.015625 89.617188 C 243.273438 99.871094 242.859375 116.914062 253.09375 127.683594 C 263.324219 138.449219 280.332031 138.871094 291.074219 128.613281 C 301.824219 118.359375 302.238281 101.3125 292.007812 90.546875 C 281.773438 79.777344 264.761719 79.359375 254.015625 89.617188 "/>
<path style=" stroke:none;fill-rule:nonzero;fill:rgb(79.219055%,26.269531%,8.628845%);fill-opacity:1;" d="M 293.617188 84.457031 C 292.300781 85.714844 292.25 87.800781 293.503906 89.117188 C 294.757812 90.4375 296.839844 90.488281 298.152344 89.230469 C 299.472656 87.972656 299.523438 85.890625 298.269531 84.570312 C 297.011719 83.25 294.933594 83.199219 293.617188 84.457031 "/>
<path style=" stroke:none;fill-rule:nonzero;fill:rgb(79.219055%,26.269531%,8.628845%);fill-opacity:1;" d="M 246.9375 129 C 245.625 130.253906 245.574219 132.34375 246.824219 133.664062 C 248.082031 134.984375 250.164062 135.03125 251.480469 133.777344 C 252.800781 132.519531 252.851562 130.429688 251.597656 129.113281 C 250.34375 127.789062 248.257812 127.742188 246.9375 129 "/>
<path style=" stroke:none;fill-rule:nonzero;fill:rgb(79.219055%,26.269531%,8.628845%);fill-opacity:1;" d="M 297.15625 130.230469 C 295.902344 128.90625 293.816406 128.855469 292.5 130.113281 C 291.183594 131.371094 291.136719 133.457031 292.390625 134.777344 C 293.644531 136.097656 295.726562 136.144531 297.046875 134.890625 C 298.359375 133.632812 298.410156 131.546875 297.15625 130.230469 "/>
<path style=" stroke:none;fill-rule:nonzero;fill:rgb(79.219055%,26.269531%,8.628845%);fill-opacity:1;" d="M 252.707031 83.457031 C 251.457031 82.136719 249.367188 82.082031 248.054688 83.34375 C 246.734375 84.597656 246.6875 86.6875 247.9375 88.003906 C 249.195312 89.324219 251.273438 89.375 252.59375 88.121094 C 253.910156 86.859375 253.960938 84.777344 252.707031 83.457031 "/>
<path style=" stroke:none;fill-rule:nonzero;fill:rgb(79.219055%,26.269531%,8.628845%);fill-opacity:1;" d="M 304.847656 106.605469 C 303.03125 106.558594 301.519531 108.003906 301.476562 109.824219 C 301.429688 111.644531 302.871094 113.160156 304.679688 113.203125 C 306.503906 113.246094 308.015625 111.804688 308.058594 109.980469 C 308.101562 108.164062 306.664062 106.648438 304.847656 106.605469 "/>
<path style=" stroke:none;fill-rule:nonzero;fill:rgb(79.219055%,26.269531%,8.628845%);fill-opacity:1;" d="M 240.414062 105.03125 C 238.597656 104.988281 237.085938 106.429688 237.042969 108.246094 C 236.992188 110.066406 238.433594 111.578125 240.25 111.625 C 242.066406 111.671875 243.578125 110.230469 243.625 108.40625 C 243.667969 106.585938 242.230469 105.074219 240.414062 105.03125 "/>
<path style=" stroke:none;fill-rule:nonzero;fill:rgb(79.219055%,26.269531%,8.628845%);fill-opacity:1;" d="M 275.050781 141.476562 C 275.101562 139.660156 273.65625 138.144531 271.84375 138.101562 C 270.027344 138.058594 268.515625 139.5 268.472656 141.324219 C 268.425781 143.140625 269.867188 144.65625 271.679688 144.699219 C 273.496094 144.742188 275.007812 143.300781 275.050781 141.476562 "/>
<path style=" stroke:none;fill-rule:nonzero;fill:rgb(79.219055%,26.269531%,8.628845%);fill-opacity:1;" d="M 276.625 76.914062 C 276.671875 75.089844 275.230469 73.574219 273.414062 73.535156 C 271.601562 73.488281 270.089844 74.929688 270.042969 76.75 C 269.996094 78.570312 271.441406 80.082031 273.253906 80.128906 C 275.074219 80.171875 276.582031 78.734375 276.625 76.914062 "/>
<path style=" stroke:none;fill-rule:nonzero;fill:rgb(25.878906%,74.508667%,59.609985%);fill-opacity:1;" d="M 188.070312 112.285156 C 203.378906 118.03125 218.433594 130.59375 233.160156 146.085938 C 247.882812 161.578125 259.667969 177.261719 264.652344 192.863281 C 262.691406 194.808594 258.199219 199.136719 256.175781 201.066406 C 251.71875 205.320312 246.546875 208.882812 241.792969 213.066406 C 232.625 201.503906 221.382812 186.667969 206.765625 171.28125 C 192.136719 155.890625 177.84375 143.976562 166.765625 134.238281 C 171.175781 129.683594 175.027344 124.617188 179.480469 120.363281 C 181.503906 118.4375 186.039062 114.148438 188.070312 112.285156 "/>
<path style=" stroke:none;fill-rule:nonzero;fill:rgb(17.248535%,48.629761%,39.219666%);fill-opacity:1;" d="M 243.375 205.609375 C 242.53125 206.265625 242.378906 207.484375 243.03125 208.335938 C 243.679688 209.1875 244.894531 209.351562 245.746094 208.703125 C 246.597656 208.058594 246.753906 206.832031 246.09375 205.972656 C 245.4375 205.117188 244.214844 204.957031 243.375 205.609375 "/>
<path style=" stroke:none;fill-rule:nonzero;fill:rgb(17.248535%,48.629761%,39.219666%);fill-opacity:1;" d="M 239.078125 200.132812 C 238.246094 200.800781 238.109375 202.019531 238.773438 202.863281 C 239.4375 203.703125 240.652344 203.855469 241.496094 203.191406 C 242.335938 202.53125 242.476562 201.308594 241.804688 200.460938 C 241.136719 199.605469 239.914062 199.464844 239.078125 200.132812 "/>
<path style=" stroke:none;fill-rule:nonzero;fill:rgb(17.248535%,48.629761%,39.219666%);fill-opacity:1;" d="M 234.710938 194.722656 C 233.882812 195.402344 233.769531 196.621094 234.441406 197.449219 C 235.117188 198.285156 236.335938 198.417969 237.164062 197.742188 C 238 197.074219 238.121094 195.847656 237.441406 195.007812 C 236.761719 194.164062 235.53125 194.042969 234.710938 194.722656 "/>
<path style=" stroke:none;fill-rule:nonzero;fill:rgb(17.248535%,48.629761%,39.219666%);fill-opacity:1;" d="M 230.269531 189.371094 C 229.449219 190.0625 229.347656 191.285156 230.035156 192.109375 C 230.71875 192.929688 231.941406 193.042969 232.765625 192.359375 C 233.582031 191.675781 233.691406 190.449219 233.003906 189.617188 C 232.304688 188.789062 231.082031 188.679688 230.269531 189.371094 "/>
<path style=" stroke:none;fill-rule:nonzero;fill:rgb(17.248535%,48.629761%,39.219666%);fill-opacity:1;" d="M 225.75 184.085938 C 224.941406 184.789062 224.855469 186.011719 225.554688 186.824219 C 226.25 187.636719 227.476562 187.734375 228.285156 187.039062 C 229.097656 186.34375 229.1875 185.113281 228.484375 184.292969 C 227.78125 183.476562 226.546875 183.382812 225.75 184.085938 "/>
<path style=" stroke:none;fill-rule:nonzero;fill:rgb(17.248535%,48.629761%,39.219666%);fill-opacity:1;" d="M 221.15625 178.867188 C 220.359375 179.582031 220.292969 180.804688 221 181.609375 C 221.710938 182.410156 222.929688 182.488281 223.738281 181.78125 C 224.539062 181.078125 224.609375 179.847656 223.894531 179.035156 C 223.175781 178.226562 221.953125 178.152344 221.15625 178.867188 "/>
<path style=" stroke:none;fill-rule:nonzero;fill:rgb(17.248535%,48.629761%,39.219666%);fill-opacity:1;" d="M 216.492188 173.710938 C 215.707031 174.4375 215.652344 175.664062 216.375 176.457031 C 217.09375 177.246094 218.320312 177.3125 219.113281 176.589844 C 219.902344 175.875 219.960938 174.644531 219.230469 173.84375 C 218.503906 173.046875 217.277344 172.988281 216.492188 173.710938 "/>
<path style=" stroke:none;fill-rule:nonzero;fill:rgb(17.248535%,48.629761%,39.219666%);fill-opacity:1;" d="M 211.75 168.625 C 210.980469 169.363281 210.949219 170.589844 211.679688 171.371094 C 212.410156 172.152344 213.632812 172.199219 214.414062 171.46875 C 215.195312 170.738281 215.238281 169.507812 214.496094 168.71875 C 213.757812 167.929688 212.527344 167.894531 211.75 168.625 "/>
<path style=" stroke:none;fill-rule:nonzero;fill:rgb(17.248535%,48.629761%,39.219666%);fill-opacity:1;" d="M 206.945312 163.609375 C 206.179688 164.355469 206.167969 165.582031 206.90625 166.355469 C 207.652344 167.125 208.875 167.148438 209.648438 166.410156 C 210.417969 165.671875 210.441406 164.441406 209.691406 163.660156 C 208.941406 162.882812 207.714844 162.863281 206.945312 163.609375 "/>
<path style=" stroke:none;fill-rule:nonzero;fill:rgb(17.248535%,48.629761%,39.219666%);fill-opacity:1;" d="M 202.066406 158.660156 C 201.3125 159.414062 201.316406 160.640625 202.074219 161.402344 C 202.824219 162.164062 204.042969 162.171875 204.8125 161.421875 C 205.570312 160.671875 205.570312 159.4375 204.8125 158.667969 C 204.050781 157.902344 202.824219 157.898438 202.066406 158.660156 "/>
<path style=" stroke:none;fill-rule:nonzero;fill:rgb(17.248535%,48.629761%,39.219666%);fill-opacity:1;" d="M 197.117188 153.777344 C 196.375 154.546875 196.398438 155.773438 197.160156 156.519531 C 197.929688 157.273438 199.144531 157.265625 199.898438 156.503906 C 200.648438 155.738281 200.636719 154.507812 199.867188 153.753906 C 199.09375 152.996094 197.863281 153.007812 197.117188 153.777344 "/>
<path style=" stroke:none;fill-rule:nonzero;fill:rgb(17.248535%,48.629761%,39.219666%);fill-opacity:1;" d="M 192.105469 148.964844 C 191.371094 149.742188 191.40625 150.96875 192.183594 151.710938 C 192.960938 152.449219 194.183594 152.421875 194.921875 151.652344 C 195.660156 150.878906 195.628906 149.644531 194.847656 148.902344 C 194.066406 148.15625 192.835938 148.1875 192.105469 148.964844 "/>
<path style=" stroke:none;fill-rule:nonzero;fill:rgb(17.248535%,48.629761%,39.219666%);fill-opacity:1;" d="M 187.019531 144.222656 C 186.296875 145.015625 186.351562 146.242188 187.136719 146.964844 C 187.921875 147.695312 189.144531 147.652344 189.875 146.867188 C 190.605469 146.089844 190.554688 144.855469 189.761719 144.121094 C 188.972656 143.386719 187.738281 143.433594 187.019531 144.222656 "/>
<path style=" stroke:none;fill-rule:nonzero;fill:rgb(17.248535%,48.629761%,39.219666%);fill-opacity:1;" d="M 181.863281 139.554688 C 181.15625 140.351562 181.230469 141.578125 182.023438 142.296875 C 182.820312 143.015625 184.042969 142.957031 184.757812 142.160156 C 185.476562 141.371094 185.410156 140.140625 184.605469 139.414062 C 183.804688 138.691406 182.574219 138.757812 181.863281 139.554688 "/>
<path style=" stroke:none;fill-rule:nonzero;fill:rgb(17.248535%,48.629761%,39.219666%);fill-opacity:1;" d="M 176.648438 134.960938 C 175.945312 135.769531 176.035156 136.992188 176.84375 137.695312 C 177.648438 138.398438 178.867188 138.324219 179.578125 137.527344 C 180.28125 136.71875 180.203125 135.488281 179.386719 134.777344 C 178.570312 134.066406 177.34375 134.148438 176.648438 134.960938 "/>
<path style=" stroke:none;fill-rule:nonzero;fill:rgb(17.248535%,48.629761%,39.219666%);fill-opacity:1;" d="M 171.355469 130.433594 C 170.671875 131.253906 170.78125 132.476562 171.59375 133.167969 C 172.410156 133.863281 173.636719 133.769531 174.332031 132.960938 C 175.027344 132.140625 174.925781 130.914062 174.097656 130.214844 C 173.277344 129.515625 172.042969 129.617188 171.355469 130.433594 "/>
<path style=" stroke:none;fill-rule:nonzero;fill:rgb(94.509888%,31.759644%,10.5896%);fill-opacity:1;" d="M 352.789062 65.53125 C 352.191406 65.910156 352.015625 66.703125 352.390625 67.3125 C 352.765625 67.921875 353.550781 68.125 354.160156 67.765625 C 354.769531 67.402344 354.953125 66.605469 354.574219 65.976562 C 354.195312 65.351562 353.390625 65.15625 352.789062 65.53125 "/>
<path style=" stroke:none;fill-rule:nonzero;fill:rgb(94.509888%,31.759644%,10.5896%);fill-opacity:1;" d="M 350.214844 61.609375 C 349.632812 62.011719 349.496094 62.816406 349.890625 63.410156 C 350.289062 64.007812 351.085938 64.179688 351.679688 63.796875 C 352.265625 63.410156 352.429688 62.597656 352.019531 61.992188 C 351.613281 61.378906 350.804688 61.214844 350.214844 61.609375 "/>
<path style=" stroke:none;fill-rule:nonzero;fill:rgb(94.509888%,31.759644%,10.5896%);fill-opacity:1;" d="M 347.503906 57.792969 C 346.933594 58.214844 346.824219 59.023438 347.242188 59.601562 C 347.664062 60.179688 348.464844 60.324219 349.042969 59.917969 C 349.621094 59.511719 349.746094 58.695312 349.316406 58.105469 C 348.886719 57.503906 348.070312 57.367188 347.503906 57.792969 "/>
<path style=" stroke:none;fill-rule:nonzero;fill:rgb(94.509888%,31.759644%,10.5896%);fill-opacity:1;" d="M 344.636719 54.078125 C 344.085938 54.523438 344.007812 55.332031 344.453125 55.898438 C 344.890625 56.460938 345.699219 56.574219 346.265625 56.144531 C 346.824219 55.714844 346.914062 54.890625 346.464844 54.316406 C 346.011719 53.738281 345.191406 53.632812 344.636719 54.078125 "/>
<path style=" stroke:none;fill-rule:nonzero;fill:rgb(94.509888%,31.759644%,10.5896%);fill-opacity:1;" d="M 341.636719 50.46875 C 341.101562 50.9375 341.054688 51.753906 341.515625 52.296875 C 341.980469 52.84375 342.792969 52.929688 343.335938 52.472656 C 343.882812 52.027344 343.941406 51.199219 343.46875 50.640625 C 342.992188 50.078125 342.171875 50.007812 341.636719 50.46875 "/>
<path style=" stroke:none;fill-rule:nonzero;fill:rgb(94.509888%,31.759644%,10.5896%);fill-opacity:1;" d="M 338.5 46.980469 C 337.984375 47.464844 337.964844 48.28125 338.449219 48.816406 C 338.933594 49.339844 339.75 49.394531 340.273438 48.921875 C 340.796875 48.453125 340.828125 47.621094 340.335938 47.082031 C 339.839844 46.539062 339.015625 46.496094 338.5 46.980469 "/>
<path style=" stroke:none;fill-rule:nonzero;fill:rgb(94.509888%,31.759644%,10.5896%);fill-opacity:1;" d="M 335.230469 43.617188 C 334.734375 44.121094 334.746094 44.9375 335.25 45.445312 C 335.757812 45.957031 336.566406 45.980469 337.078125 45.488281 C 337.585938 44.992188 337.585938 44.167969 337.066406 43.644531 C 336.554688 43.125 335.726562 43.113281 335.230469 43.617188 "/>
<path style=" stroke:none;fill-rule:nonzero;fill:rgb(94.509888%,31.759644%,10.5896%);fill-opacity:1;" d="M 331.835938 40.375 C 331.363281 40.898438 331.402344 41.714844 331.925781 42.210938 C 332.449219 42.695312 333.269531 42.683594 333.753906 42.175781 C 334.242188 41.664062 334.210938 40.835938 333.671875 40.335938 C 333.140625 39.832031 332.316406 39.851562 331.835938 40.375 "/>
<path style=" stroke:none;fill-rule:nonzero;fill:rgb(94.509888%,31.759644%,10.5896%);fill-opacity:1;" d="M 328.324219 37.273438 C 327.871094 37.8125 327.941406 38.625 328.484375 39.09375 C 329.023438 39.566406 329.839844 39.523438 330.308594 38.992188 C 330.777344 38.464844 330.710938 37.640625 330.15625 37.160156 C 329.601562 36.671875 328.785156 36.726562 328.324219 37.273438 "/>
<path style=" stroke:none;fill-rule:nonzero;fill:rgb(94.509888%,31.759644%,10.5896%);fill-opacity:1;" d="M 324.695312 34.304688 C 324.265625 34.859375 324.367188 35.671875 324.921875 36.117188 C 325.484375 36.566406 326.296875 36.496094 326.746094 35.949219 C 327.191406 35.398438 327.09375 34.578125 326.523438 34.117188 C 325.949219 33.65625 325.132812 33.742188 324.695312 34.304688 "/>
<path style=" stroke:none;fill-rule:nonzero;fill:rgb(94.509888%,31.759644%,10.5896%);fill-opacity:1;" d="M 320.964844 31.476562 C 320.550781 32.054688 320.6875 32.859375 321.257812 33.285156 C 321.835938 33.710938 322.640625 33.605469 323.066406 33.042969 C 323.492188 32.476562 323.363281 31.660156 322.777344 31.222656 C 322.191406 30.78125 321.375 30.902344 320.964844 31.476562 "/>
<path style=" stroke:none;fill-rule:nonzero;fill:rgb(94.509888%,31.759644%,10.5896%);fill-opacity:1;" d="M 317.125 28.796875 C 316.734375 29.386719 316.898438 30.1875 317.492188 30.589844 C 318.082031 30.996094 318.878906 30.859375 319.285156 30.277344 C 319.691406 29.695312 319.535156 28.886719 318.925781 28.472656 C 318.324219 28.054688 317.515625 28.207031 317.125 28.796875 "/>
<path style=" stroke:none;fill-rule:nonzero;fill:rgb(81.959534%,49.01886%,13.729858%);fill-opacity:1;" d="M 342.9375 86.328125 C 342.140625 86.835938 341.902344 87.898438 342.402344 88.71875 C 342.90625 89.535156 343.960938 89.808594 344.773438 89.324219 C 345.585938 88.84375 345.835938 87.765625 345.324219 86.925781 C 344.8125 86.089844 343.734375 85.824219 342.9375 86.328125 "/>
<path style=" stroke:none;fill-rule:nonzero;fill:rgb(81.959534%,49.01886%,13.729858%);fill-opacity:1;" d="M 339.5 81.082031 C 338.714844 81.613281 338.523438 82.691406 339.054688 83.492188 C 339.585938 84.285156 340.652344 84.523438 341.445312 84.003906 C 342.242188 83.492188 342.453125 82.40625 341.90625 81.589844 C 341.359375 80.773438 340.277344 80.546875 339.5 81.082031 "/>
<path style=" stroke:none;fill-rule:nonzero;fill:rgb(81.959534%,49.01886%,13.729858%);fill-opacity:1;" d="M 335.855469 75.96875 C 335.101562 76.53125 334.945312 77.609375 335.507812 78.390625 C 336.070312 79.167969 337.148438 79.359375 337.917969 78.816406 C 338.699219 78.269531 338.855469 77.175781 338.285156 76.378906 C 337.707031 75.582031 336.617188 75.402344 335.855469 75.96875 "/>
<path style=" stroke:none;fill-rule:nonzero;fill:rgb(81.959534%,49.01886%,13.729858%);fill-opacity:1;" d="M 332.027344 70.992188 C 331.285156 71.585938 331.179688 72.671875 331.773438 73.429688 C 332.363281 74.183594 333.4375 74.332031 334.195312 73.757812 C 334.949219 73.1875 335.070312 72.085938 334.46875 71.3125 C 333.859375 70.535156 332.761719 70.398438 332.027344 70.992188 "/>
<path style=" stroke:none;fill-rule:nonzero;fill:rgb(81.959534%,49.01886%,13.729858%);fill-opacity:1;" d="M 328.003906 66.164062 C 327.289062 66.785156 327.222656 67.878906 327.839844 68.609375 C 328.460938 69.34375 329.550781 69.453125 330.28125 68.847656 C 331.007812 68.246094 331.089844 67.144531 330.453125 66.390625 C 329.820312 65.640625 328.714844 65.542969 328.003906 66.164062 "/>
<path style=" stroke:none;fill-rule:nonzero;fill:rgb(81.959534%,49.01886%,13.729858%);fill-opacity:1;" d="M 323.800781 61.492188 C 323.109375 62.144531 323.085938 63.234375 323.734375 63.945312 C 324.386719 64.652344 325.472656 64.722656 326.179688 64.089844 C 326.882812 63.457031 326.921875 62.351562 326.257812 61.625 C 325.59375 60.898438 324.492188 60.84375 323.800781 61.492188 "/>
<path style=" stroke:none;fill-rule:nonzero;fill:rgb(81.959534%,49.01886%,13.729858%);fill-opacity:1;" d="M 319.425781 56.984375 C 318.765625 57.660156 318.773438 58.753906 319.449219 59.4375 C 320.128906 60.117188 321.214844 60.148438 321.898438 59.492188 C 322.578125 58.832031 322.574219 57.722656 321.886719 57.023438 C 321.195312 56.324219 320.085938 56.3125 319.425781 56.984375 "/>
<path style=" stroke:none;fill-rule:nonzero;fill:rgb(81.959534%,49.01886%,13.729858%);fill-opacity:1;" d="M 314.886719 52.648438 C 314.242188 53.347656 314.296875 54.441406 315 55.097656 C 315.703125 55.753906 316.792969 55.742188 317.449219 55.054688 C 318.097656 54.371094 318.058594 53.265625 317.339844 52.589844 C 316.621094 51.917969 315.519531 51.945312 314.886719 52.648438 "/>
<path style=" stroke:none;fill-rule:nonzero;fill:rgb(81.959534%,49.01886%,13.729858%);fill-opacity:1;" d="M 310.179688 48.488281 C 309.570312 49.214844 309.664062 50.304688 310.390625 50.933594 C 311.109375 51.5625 312.199219 51.503906 312.835938 50.792969 C 313.460938 50.089844 313.375 48.984375 312.632812 48.335938 C 311.886719 47.691406 310.789062 47.761719 310.179688 48.488281 "/>
<path style=" stroke:none;fill-rule:nonzero;fill:rgb(81.959534%,49.01886%,13.729858%);fill-opacity:1;" d="M 305.320312 44.515625 C 304.738281 45.261719 304.878906 46.347656 305.621094 46.949219 C 306.371094 47.546875 307.460938 47.449219 308.0625 46.71875 C 308.660156 45.984375 308.535156 44.882812 307.761719 44.265625 C 307 43.648438 305.902344 43.761719 305.320312 44.515625 "/>
<path style=" stroke:none;fill-rule:nonzero;fill:rgb(81.959534%,49.01886%,13.729858%);fill-opacity:1;" d="M 300.324219 40.726562 C 299.765625 41.5 299.949219 42.574219 300.71875 43.148438 C 301.484375 43.722656 302.570312 43.582031 303.136719 42.824219 C 303.710938 42.070312 303.539062 40.972656 302.75 40.390625 C 301.964844 39.800781 300.875 39.957031 300.324219 40.726562 "/>
<path style=" stroke:none;fill-rule:nonzero;fill:rgb(81.959534%,49.01886%,13.729858%);fill-opacity:1;" d="M 295.183594 37.140625 C 294.660156 37.933594 294.878906 39 295.667969 39.542969 C 296.457031 40.085938 297.53125 39.902344 298.074219 39.125 C 298.621094 38.351562 298.410156 37.265625 297.597656 36.707031 C 296.789062 36.152344 295.703125 36.347656 295.183594 37.140625 "/>
<path style=" stroke:none;fill-rule:nonzero;fill:rgb(79.219055%,26.269531%,8.628845%);fill-opacity:1;" d="M 76.839844 296.144531 C 76.839844 296.144531 73.664062 299.136719 74.960938 300.503906 C 76.257812 301.867188 79.390625 298.832031 79.390625 298.832031 L 159.515625 228.082031 C 166.25 221.660156 163.40625 219.089844 161.917969 217.515625 C 160.425781 215.949219 158 212.980469 151.269531 219.402344 L 76.839844 296.144531 "/>
</g>
</svg>
